<svg xmlns="http://www.w3.org/2000/svg" version="1.1" width="201" height="201"
viewBox="-100.5 -100.5 201 201"  >
<style>
  .segment {
    fill: #aaa;
    stroke: #333;
    stroke-width: 1;
  }
  .label {
    font: bold 9pt sans-serif;
  }
  .main {
    fill: #8c8;
  }
  .combat {
    fill: #c88;
  }
  #indicator{
    transition: transform 0.7s ease-out;
  }
</style>
<path d="M0,10 A10 10 0 0 1 0,-10 L43 0Z" id="indicator" style="transform: rotate(172.5deg);"/>

<g transform="rotate(165)">
  <path d="M100,0 A100 100 0 0 1 96.59258,25.88190 L48.29629,12.94095 50,0Z" class="segment" />
  <text x="96" y="4" text-anchor="end" transform="rotate(7.5)" class="label">Untap</text>
</g>
<g transform="rotate(150)">
  <path d="M100,0 L96.59258,25.88190 48.29629,12.94095 50,0Z" class="segment" />
  <text x="96" y="4" text-anchor="end" transform="rotate(7.5)" class="label">Upkeep</text>
</g>
<g transform="rotate(135)">
  <path d="M100,0 L96.59258,25.88190 48.29629,12.94095 50,0Z" class="segment" />
  <text x="96" y="4" text-anchor="end" transform="rotate(7.5)" class="label">Draw</text>
</g>
<g transform="rotate(120)">
  <path d="M100,0 L96.59258,25.88190 48.29629,12.94095 50,0Z" class="segment main" />
  <text x="96" y="4" text-anchor="end" transform="rotate(7.5)" class="label">Main</text>
</g>
<g transform="rotate(105)">
  <path d="M100,0 L96.59258,25.88190 48.29629,12.94095 50,0Z" class="segment combat" />
  <text x="96" y="4" text-anchor="end" transform="rotate(7.5)" class="label">Beg Cb</text>
</g>
<g transform="rotate(90)">
  <path d="M100,0 L96.59258,25.88190 48.29629,12.94095 50,0Z" class="segment combat" />
  <text x="96" y="4" text-anchor="end" transform="rotate(7.5)" class="label">Attack</text>
</g>
<g transform="rotate(75)">
  <path d="M100,0 L96.59258,25.88190 48.29629,12.94095 50,0Z" class="segment combat" />
  <text x="96" y="4" text-anchor="end" transform="rotate(7.5)" class="label">Block</text>
</g>
<g transform="rotate(60)">
  <path d="M100,0 L96.59258,25.88190 48.29629,12.94095 50,0Z" class="segment combat" />
  <text x="96" y="4" text-anchor="end" transform="rotate(7.5)" class="label">1. Dam</text>
</g>
<g transform="rotate(45)">
  <path d="M100,0 L96.59258,25.88190 48.29629,12.94095 50,0Z" class="segment combat" />
  <text x="96" y="4" text-anchor="end" transform="rotate(7.5)" class="label">2. Dam</text>
</g>
<g transform="rotate(30)">
  <path d="M100,0 L96.59258,25.88190 48.29629,12.94095 50,0Z" class="segment combat" />
  <text x="96" y="4" text-anchor="end" transform="rotate(7.5)" class="label">End Cb</text>
</g>
<g transform="rotate(15)">
  <path d="M100,0 L96.59258,25.88190 48.29629,12.94095 50,0Z" class="segment main" />
  <text x="96" y="4" text-anchor="end" transform="rotate(7.5)" class="label">Main</text>
</g>
<g transform="rotate(0)">
  <path d="M100,0 L96.59258,25.88190 48.29629,12.94095 50,0Z" class="segment" />
  <text x="96" y="4" text-anchor="end" transform="rotate(7.5)" class="label">End</text>
</g>


<g transform="rotate(345)">
  <path d="M100,0 A100 100 0 0 1 96.59258,25.88190 L48.29629,12.94095 50,0Z" class="segment" />
  <text x="96" y="4" text-anchor="end" transform="rotate(7.5)" class="label">Untap</text>
</g>
<g transform="rotate(330)">
  <path d="M100,0 L96.59258,25.88190 48.29629,12.94095 50,0Z" class="segment" />
  <text x="96" y="4" text-anchor="end" transform="rotate(7.5)" class="label">Upkeep</text>
</g>
<g transform="rotate(315)">
  <path d="M100,0 L96.59258,25.88190 48.29629,12.94095 50,0Z" class="segment" />
  <text x="96" y="4" text-anchor="end" transform="rotate(7.5)" class="label">Draw</text>
</g>
<g transform="rotate(300)">
  <path d="M100,0 L96.59258,25.88190 48.29629,12.94095 50,0Z" class="segment main" />
  <text x="96" y="4" text-anchor="end" transform="rotate(7.5)" class="label">Main</text>
</g>
<g transform="rotate(285)">
  <path d="M100,0 L96.59258,25.88190 48.29629,12.94095 50,0Z" class="segment combat" />
  <text x="96" y="4" text-anchor="end" transform="rotate(7.5)" class="label">Beg Cb</text>
</g>
<g transform="rotate(270)">
  <path d="M100,0 L96.59258,25.88190 48.29629,12.94095 50,0Z" class="segment combat" />
  <text x="96" y="4" text-anchor="end" transform="rotate(7.5)" class="label">Attack</text>
</g>
<g transform="rotate(255)">
  <path d="M100,0 L96.59258,25.88190 48.29629,12.94095 50,0Z" class="segment combat" />
  <text x="96" y="4" text-anchor="end" transform="rotate(7.5)" class="label">Block</text>
</g>
<g transform="rotate(240)">
  <path d="M100,0 L96.59258,25.88190 48.29629,12.94095 50,0Z" class="segment combat" />
  <text x="96" y="4" text-anchor="end" transform="rotate(7.5)" class="label">1. Dam</text>
</g>
<g transform="rotate(225)">
  <path d="M100,0 L96.59258,25.88190 48.29629,12.94095 50,0Z" class="segment combat" />
  <text x="96" y="4" text-anchor="end" transform="rotate(7.5)" class="label">2. Dam</text>
</g>
<g transform="rotate(210)">
  <path d="M100,0 L96.59258,25.88190 48.29629,12.94095 50,0Z" class="segment combat" />
  <text x="96" y="4" text-anchor="end" transform="rotate(7.5)" class="label">End Cb</text>
</g>
<g transform="rotate(195)">
  <path d="M100,0 L96.59258,25.88190 48.29629,12.94095 50,0Z" class="segment main" />
  <text x="96" y="4" text-anchor="end" transform="rotate(7.5)" class="label">Main</text>
</g>
<g transform="rotate(180)">
  <path d="M100,0 L96.59258,25.88190 48.29629,12.94095 50,0Z" class="segment" />
  <text x="96" y="4" text-anchor="end" transform="rotate(7.5)" class="label">End</text>
</g>

</svg>
